<svg height="45px" viewBox="-88 0 496 496" width="45px" xmlns="http://www.w3.org/2000/svg" xmlns:xlink="http://www.w3.org/1999/xlink"><linearGradient id="a" gradientUnits="userSpaceOnUse" x1="160" x2="160" y1="496" y2="0"><stop offset="0" stop-color="#9f2fff"/><stop offset="1" stop-color="#0bb1d3"/></linearGradient><path d="m256 200h-32v-156.6875l16-16v20.6875h16v-48h-48v16h20.6875l-68.6875 68.6875-24-24-72 72v83.3125h208v-128h32v392h-288v-392h72v-16h-88v424h320v-424h-64zm-48 0h-32v-108.6875l32-32zm-48-92.6875v92.6875h-32v-108.6875l8-8zm-80 32 32-32v92.6875h-32zm64 252.6875c0 39.703125 32.304688 72 72 72s72-32.296875 72-72-32.304688-72-72-72-72 32.296875-72 72zm16.640625 8h51.617187l33.03125 39.640625c-8.535156 5.261719-18.546874 8.359375-29.289062 8.359375-28.152344 0-51.457031-20.910156-55.359375-48zm111.359375-8c0 14.375-5.496094 27.464844-14.433594 37.382812l-33.566406-40.277343v-52.464844c27.097656 3.902344 48 27.207031 48 55.359375zm-64-55.359375v47.359375h-47.359375c3.527344-24.472656 22.886719-43.832031 47.359375-47.359375zm-176 111.359375h16v16h-16zm32 16v-16h16v16zm32 0v-16h16v16zm32-48h-96v-16h96zm0-32h-96v-16h96zm0-32h-96v-16h96zm0-32h-96v-16h96zm-96-48h160v16h-160zm192 16h-16v-16h16zm32-16v16h-16v-16zm32 16h-16v-16h16zm-256-48h120v16h-120zm256 16h-120v-16h120zm0 0" fill="url(#a)"/></svg>