<?xml version="1.0" encoding="iso-8859-1"?>
<!-- Generator: Adobe Illustrator 19.0.0, SVG Export Plug-In . SVG Version: 6.00 Build 0)  -->
<svg version="1.1" id="Capa_1" xmlns="http://www.w3.org/2000/svg" xmlns:xlink="http://www.w3.org/1999/xlink" height="55px" width="55px" x="0px" y="0px"
	 viewBox="0 0 512 512" style="enable-background:new 0 0 512 512;" xml:space="preserve">
<path style="fill:#FFD400;" d="M421.05,165c0,37.8-12.599,73.5-36.599,103.2c-15,18.3-23.401,41.699-23.401,65.4V362l-26.4,30
	H183.751l-32.701-30v-28.4c0-23.401-8.401-47.1-24-66.601c-30.3-37.5-42.001-84.899-33.3-132.599c12-65.1,63-117.6,127.201-130.8
	C232.649,1.199,244.35,0,256.05,0c38.101,0,74.399,12.599,104.099,36.899C398.85,68.399,421.05,115.199,421.05,165z"/>
<path style="fill:#FDBF00;" d="M421.05,165c0,37.8-12.599,73.5-36.599,103.2c-15,18.3-23.401,41.699-23.401,65.4V362l-26.4,30h-78.6
	V0c38.101,0,74.399,12.599,104.099,36.899C398.85,68.399,421.05,115.199,421.05,165z"/>
<path style="fill:#DFD7D5;" d="M301.05,497c0,8.399-6.599,15-15,15h-60c-8.401,0-15-6.601-15-15c0-8.401,6.599-15,15-15h60
	C294.451,482,301.05,488.599,301.05,497z"/>
<g>
	<path style="fill:#FFE470;" d="M271.05,75v60c0,8.399-6.599,15-15,15c-8.401,0-15-6.601-15-15V75c0-8.401,6.599-15,15-15
		C264.451,60,271.05,66.599,271.05,75z"/>
	<path style="fill:#FFE470;" d="M271.05,195v182c0,8.399-6.599,15-15,15c-8.401,0-15-6.601-15-15V195c0-8.401,6.599-15,15-15
		C264.451,180,271.05,186.599,271.05,195z"/>
	<path style="fill:#FFE470;" d="M226.05,180h-60c-8.291,0-15-6.709-15-15s6.709-15,15-15h60c8.291,0,15,6.709,15,15
		S234.341,180,226.05,180z"/>
</g>
<path style="fill:#FFD400;" d="M346.05,180h-60c-8.291,0-15-6.709-15-15s6.709-15,15-15h60c8.291,0,15,6.709,15,15
	S354.341,180,346.05,180z"/>
<path style="fill:#FFE470;" d="M181.812,239.238c-5.859-5.859-5.859-15.352,0-21.211l42.422-42.422
	c5.859-5.859,15.352-5.859,21.211,0s5.859,15.352,0,21.211l-42.422,42.422C197.164,245.098,187.671,245.098,181.812,239.238z"/>
<g>
	<path style="fill:#FFD400;" d="M277.261,158.789c-3.838,0-7.676-1.465-10.605-4.395c-5.859-5.859-5.859-15.352,0-21.211
		l42.422-42.422c5.859-5.859,15.352-5.859,21.211,0s5.859,15.352,0,21.211l-42.422,42.422
		C284.937,157.324,281.099,158.789,277.261,158.789z"/>
	<path style="fill:#FFD400;" d="M309.077,239.238l-42.422-42.422c-5.859-5.859-5.859-15.352,0-21.211s15.352-5.859,21.211,0
		l42.422,42.422c5.859,5.859,5.859,15.352,0,21.211C324.429,245.098,314.937,245.098,309.077,239.238z"/>
</g>
<path style="fill:#FFE470;" d="M234.839,158.789c-3.838,0-7.676-1.465-10.605-4.395l-42.422-42.422
	c-5.859-5.859-5.859-15.352,0-21.211s15.352-5.859,21.211,0l42.422,42.422c5.859,5.859,5.859,15.352,0,21.211
	C242.515,157.324,238.677,158.789,234.839,158.789z"/>
<g>
	<path style="fill:#FFD400;" d="M256.05,150V60c8.401,0,15,6.599,15,15v60C271.05,143.399,264.451,150,256.05,150z"/>
	<path style="fill:#FFD400;" d="M256.05,392V180c8.401,0,15,6.599,15,15v182C271.05,385.399,264.451,392,256.05,392z"/>
</g>
<path style="fill:#D2C5C2;" d="M301.05,497c0,8.399-6.599,15-15,15h-30v-30h30C294.451,482,301.05,488.599,301.05,497z"/>
<path style="fill:#FFE470;" d="M256.05,120c-24.901,0-45,20.099-45,45c0,24.899,20.099,45,45,45s45-20.101,45-45
	C301.05,140.099,280.951,120,256.05,120z"/>
<path style="fill:#FFD400;" d="M256.05,210v-90c24.901,0,45,20.099,45,45C301.05,189.899,280.951,210,256.05,210z"/>
<path style="fill:#EDE9E8;" d="M361.05,362v15c0,41.4-33.6,75-75,75h-60c-41.4,0-75-33.6-75-75v-15H361.05z"/>
<path style="fill:#DFD7D5;" d="M361.05,362v15c0,41.4-33.6,75-75,75h-30v-90H361.05z"/>
<g>
</g>
<g>
</g>
<g>
</g>
<g>
</g>
<g>
</g>
<g>
</g>
<g>
</g>
<g>
</g>
<g>
</g>
<g>
</g>
<g>
</g>
<g>
</g>
<g>
</g>
<g>
</g>
<g>
</g>
</svg>
