<svg height="45px" viewBox="0 0 496 496" width="45px" xmlns="http://www.w3.org/2000/svg" xmlns:xlink="http://www.w3.org/1999/xlink"><linearGradient id="a" gradientUnits="userSpaceOnUse" x1="248" x2="248" y1="496" y2="0"><stop offset="0" stop-color="#9f2fff"/><stop offset="1" stop-color="#0bb1d3"/></linearGradient><path d="m232.054688 17.105469-26.328126 18.804687c-3.207031-1.496094-6.429687-2.839844-9.648437-4.03125l-5.300781-31.878906h-77.554688l-5.3125 31.871094c-3.214844 1.191406-6.4375 2.535156-9.644531 4.03125l-26.320313-18.796875-54.839843 54.839843 18.804687 26.328126c-1.496094 3.207031-2.839844 6.429687-4.03125 9.648437l-31.878906 5.300781v77.554688l31.871094 5.3125c1.191406 3.214844 2.535156 6.4375 4.03125 9.644531l-18.804688 26.328125 54.839844 54.839844 26.328125-18.804688c3.207031 1.496094 6.429687 2.839844 9.644531 4.03125l5.3125 31.871094h62.777344v96h-128c-26.472656 0-48 21.527344-48 48s21.527344 48 48 48h448v-432h-217.039062zm-105.277344 270.894531-4.664063-27.984375-4.625-1.496094c-5.417969-1.75-10.921875-4.054687-16.34375-6.832031l-4.335937-2.214844-23.144532 16.527344-35.664062-35.664062 16.527344-23.144532-2.214844-4.335937c-2.777344-5.429688-5.082031-10.925781-6.832031-16.34375l-1.496094-4.625-27.984375-4.664063v-50.445312l27.984375-4.664063 1.496094-4.625c1.75-5.417969 4.054687-10.921875 6.832031-16.34375l2.214844-4.335937-16.527344-23.144532 35.664062-35.664062 23.144532 16.527344 4.335937-2.214844c5.429688-2.777344 10.925781-5.082031 16.34375-6.832031l4.625-1.496094 4.664063-27.984375h50.445312l4.664063 27.984375 4.625 1.496094c5.417969 1.75 10.921875 4.054687 16.34375 6.832031l4.335937 2.214844 23.144532-16.527344 26 26h-66.121094c-12.085938-5.257812-24.910156-8-38.214844-8-52.9375 0-96 43.0625-96 96s43.0625 96 96 96c8.175781 0 16.199219-1.097656 24-3.113281v43.113281zm49.222656-59.734375c-7.734375 2.4375-15.777344 3.734375-24 3.734375-44.113281 0-80-35.886719-80-80s35.886719-80 80-80c8.257812 0 16.28125 1.289062 24 3.71875v17.113281c-7.585938-3.078125-15.671875-4.832031-24-4.832031-35.289062 0-64 28.710938-64 64s28.710938 64 64 64c8.34375 0 16.414062-1.769531 24-4.847656zm0-34.839844c-7.289062 4.230469-15.464844 6.574219-24 6.574219-26.472656 0-48-21.527344-48-48s21.527344-48 48-48c8.519531 0 16.710938 2.335938 24 6.566406zm-64 286.574219h-16v-64h16zm-96-32c0-17.648438 14.351562-32 32-32h32v64h-32c-17.648438 0-32-14.351562-32-32zm320-25.566406 40.902344 25.566406-40.902344 25.566406zm144 57.566406h-124.105469l51.203125-32-76.800781-48h-122.296875v16h112v24h-88v16h88v24h-192v-24h88v-16h-88v-24h48c8.824219 0 16-7.175781 16-16v-320h288zm-320-440h-16v-16h16zm-92.847656 38.464844-11.320313-11.3125 11.3125-11.3125 11.3125 11.3125zm-43.152344 65.535156h16v16h-16zm43.152344 81.535156 11.3125 11.3125-11.3125 11.3125-11.3125-11.3125zm92.847656 38.464844v16h-16v-16zm0 80h-16v-16h16zm-32 0h-16v-16h16zm16 16h16v16h-16zm-32 0h16v16h-16zm-16-32v16h-16v-16zm368-232h-112v112h112zm-16 96h-80v-80h80zm-112-64h-128v-16h128zm0 32h-128v-16h128zm0 32h-128v-16h128zm64 48v-16h16v16zm32 0v-16h16v16zm-64 0v-16h16v16zm96 32h-256v-16h256zm0 32h-256v-16h256zm0 32h-256v-16h256zm0 32h-256v-16h256zm-96 16h96v16h-96zm80 32h16v16h-16zm-32 0h16v16h-16zm32 32h16v16h-16zm0 0" fill="url(#a)"/></svg>