<svg id="Layer_1" height="55px" viewBox="0 0 512 512" width="55px" xmlns="http://www.w3.org/2000/svg" xmlns:xlink="http://www.w3.org/1999/xlink" data-name="Layer 1"><linearGradient id="linear-gradient" gradientUnits="userSpaceOnUse" x1="256" x2="256" y1="476" y2="28.482"><stop offset=".322" stop-color="#a163f5"/><stop offset=".466" stop-color="#b074ee"/><stop offset=".752" stop-color="#d8a1dd"/><stop offset=".898" stop-color="#efbad3"/></linearGradient><linearGradient id="linear-gradient-3" x1="321.8" x2="321.8" xlink:href="#linear-gradient" y1="476" y2="28.482"/><linearGradient id="linear-gradient-4" x1="190.2" x2="190.2" xlink:href="#linear-gradient" y1="476" y2="28.482"/><linearGradient id="linear-gradient-5" x1="168.044" x2="168.044" xlink:href="#linear-gradient" y1="476" y2="28.482"/><path d="m287.835 188.327v-20.314a31.883 31.883 0 0 0 -25.835-31.26v-120.753a6 6 0 0 0 -12 0v120.753a31.883 31.883 0 0 0 -25.835 31.26v20.314c-77.727 14.926-136.64 83.429-136.64 165.444a6 6 0 0 0 6 6h107.885v4.129a53.072 53.072 0 1 0 106.144 0v-4.124h110.921a6 6 0 0 0 6-6c0-82.02-58.913-150.523-136.64-165.449zm-31.835-40.149a19.851 19.851 0 0 1 19.18 14.868h-38.36a19.851 19.851 0 0 1 19.18-14.868zm-19.835 26.868h39.67v11.424a168.288 168.288 0 0 0 -39.67 0zm59.389 188.854a41.072 41.072 0 1 1 -82.144 0v-4.124h82.144zm-195.915-16.129c3.161-83.514 72.087-150.471 156.361-150.471s153.2 66.96 156.361 150.474z" fill="url(#linear-gradient)"/><path d="m256 449.508a6 6 0 0 0 -6 6v40.492a6 6 0 0 0 12 0v-40.492a6 6 0 0 0 -6-6z" fill="url(#linear-gradient)"/><path d="m311.908 431.563a6 6 0 0 0 -8.561 8.41l28.344 28.851a6 6 0 0 0 8.561-8.41z" fill="url(#linear-gradient-3)"/><path d="m200.092 431.563-28.344 28.851a6 6 0 0 0 8.561 8.41l28.344-28.851a6 6 0 0 0 -8.561-8.41z" fill="url(#linear-gradient-4)"/><path d="m186.75 236.81a168.731 168.731 0 0 0 -45.927 48.143 6 6 0 1 0 10.141 6.417 156.781 156.781 0 0 1 42.677-44.736 6 6 0 0 0 -6.891-9.824z" fill="url(#linear-gradient-5)"/></svg>