<svg id="Capa_1" enable-background="new 0 0 512.059 512.059" height="60px" viewBox="0 0 512.059 512.059" width="60px" xmlns="http://www.w3.org/2000/svg" xmlns:xlink="http://www.w3.org/1999/xlink"><linearGradient id="SVGID_1_" gradientUnits="userSpaceOnUse" x1="256.029" x2="256.029" y1="503.544" y2="8.515"><stop offset="0" stop-color="#fd5900"/><stop offset="1" stop-color="#ffde00"/></linearGradient><g><g><g><path d="m76.059 263.544c0-8.284-6.716-15-15-15h-46.059c-8.284 0-15 6.716-15 15s6.716 15 15 15h46.059c8.284 0 15-6.716 15-15zm3.621 84.495-39.021 22.529c-7.175 4.142-9.633 13.316-5.49 20.49 4.155 7.197 13.336 9.62 20.49 5.49l39.021-22.528c7.175-4.142 9.633-13.316 5.49-20.49-4.143-7.176-13.316-9.633-20.49-5.491zm266.335-240.354c7.143 4.125 16.33 1.715 20.49-5.49l22.529-39.022c4.143-7.174 1.685-16.348-5.49-20.49-7.174-4.143-16.348-1.685-20.49 5.49l-22.529 39.022c-4.143 7.174-1.685 16.347 5.49 20.49zm-89.986-24.112c8.284 0 15-6.716 15-15v-45.058c0-8.284-6.716-15-15-15s-15 6.716-15 15v45.059c0 8.283 6.716 14.999 15 14.999zm176.35 95.476 39.021-22.529c7.175-4.142 9.633-13.316 5.49-20.49-4.143-7.175-13.316-9.631-20.49-5.49l-39.021 22.529c-7.175 4.142-9.633 13.316-5.49 20.49 4.154 7.197 13.336 9.62 20.49 5.49zm-286.825-76.855c4.155 7.197 13.336 9.62 20.49 5.49 7.175-4.142 9.633-13.316 5.49-20.49l-22.529-39.022c-4.142-7.175-13.317-9.631-20.49-5.49-7.175 4.142-9.633 13.316-5.49 20.49zm325.846 268.374-39.021-22.529c-7.175-4.144-16.348-1.685-20.49 5.49-4.143 7.174-1.685 16.348 5.49 20.49l39.021 22.529c7.143 4.125 16.33 1.715 20.49-5.49 4.143-7.174 1.685-16.348-5.49-20.49zm-376.72-217.5-39.021-22.529c-7.175-4.143-16.349-1.685-20.49 5.49-4.143 7.174-1.685 16.348 5.49 20.49l39.021 22.529c7.143 4.125 16.33 1.715 20.49-5.49 4.143-7.174 1.684-16.348-5.49-20.49zm402.379 95.476h-46.059c-8.284 0-15 6.716-15 15s6.716 15 15 15h46.059c8.284 0 15-6.716 15-15s-6.716-15-15-15zm-146.504-101.498c-35.27-28.64-81.486-39.617-126.808-30.113-58.105 12.186-104.366 59.826-115.114 118.545-11.614 63.453 17.321 125.517 72.426 157.366v65.7c0 24.813 20.187 45 45 45h60c24.813 0 45-20.187 45-45v-65.701c46.498-26.873 75-75.599 75-129.299 0-45.393-20.231-87.855-55.504-116.498zm-49.496 311.498c0 8.271-6.729 15-15 15h-60c-8.271 0-15-6.729-15-15v-15h90zm8.292-88.07c-5.082 2.541-8.292 7.735-8.292 13.417v29.654h-90v-29.655c0-5.682-3.21-10.876-8.292-13.417-48.412-24.204-74.382-76.284-64.624-129.595 8.577-46.862 45.454-84.873 91.763-94.585 37.269-7.817 74.174 1.657 101.738 24.041 28.227 22.921 44.415 56.895 44.415 93.209 0 45.385-25.561 86.358-66.708 106.931zm-53.292-196.93c-24.813 0-45 20.187-45 45 0 8.284 6.716 15 15 15s15-6.716 15-15c0-8.271 6.729-15 15-15s15 6.729 15 15c0 5.34-2.878 10.322-7.509 13.001-13.873 8.024-22.491 22.957-22.491 38.971v8.028c0 8.284 6.716 15 15 15s15-6.716 15-15v-8.028c0-5.34 2.878-10.322 7.513-13.002 13.87-8.025 22.487-22.957 22.487-38.97 0-24.813-20.187-45-45-45zm0 150c-8.284 0-15 6.716-15 15s6.716 15 15 15 15-6.716 15-15-6.716-15-15-15z" fill="url(#SVGID_1_)"/></g></g></g></svg>