<svg height="55px" viewBox="0 -40 496 496" width="55px" xmlns="http://www.w3.org/2000/svg" xmlns:xlink="http://www.w3.org/1999/xlink"><linearGradient id="a" gradientUnits="userSpaceOnUse" x1="248" x2="248" y1="416" y2="0"><stop offset="0" stop-color="#9f2fff"/><stop offset="1" stop-color="#0bb1d3"/></linearGradient><path d="m456 72h-136v16h-34.65625c-11.023438-50.257812-55.832031-88-109.34375-88-61.761719 0-112 50.238281-112 112 0 44.566406 26.222656 83.015625 64 101.039062v12.714844l-97.695312 24.421875c-17.839844 4.464844-30.304688 20.417969-30.304688 38.808594v127.015625h352v-127.015625c0-18.390625-12.464844-34.34375-30.304688-38.808594l-97.695312-24.421875v-12.714844c30.785156-14.6875 53.863281-42.925781 61.34375-77.039062h34.65625v16h136c22.054688 0 40-17.945312 40-40s-17.945312-40-40-40zm-322.449219 168.863281 29.898438 29.898438-32.351563 21.566406-8.839844-48.640625zm57.320313 50.664063-5.117188 20.472656h-19.507812l-5.125-20.472656 14.878906-9.910156zm-43.878906 9.425781 4.832031 19.328125-7.824219 43.023438-9.785156-53.832032zm19.679687 27.046875h18.65625l13.085937 72h-44.839843zm33.503906-7.71875 4.832031-19.328125 12.785157 8.519531-9.792969 53.832032zm-184.175781-31.296875c0-11.03125 7.480469-20.609375 18.175781-23.289063l72.527344-18.128906 27.710937 152.433594h-70.414062v-96h-16v96h-32zm320 0v111.015625h-32v-96h-16v96h-70.414062l27.710937-152.433594 72.527344 18.128906c10.695312 2.679688 18.175781 12.257813 18.175781 23.289063zm-106.246094-45.296875-8.84375 48.640625-32.351562-21.566406 29.898437-29.898438zm-21.753906-15-32 32-32-32v-9.40625c10.152344 3.039062 20.878906 4.71875 32 4.71875s21.847656-1.679688 32-4.71875zm-32-20.6875c-52.9375 0-96-43.0625-96-96s43.0625-96 96-96 96 43.0625 96 96-43.0625 96-96 96zm111.59375-88c.191406-2.65625.40625-5.296875.40625-8s-.214844-5.34375-.40625-8h32.40625v16zm48.40625-32h16v48h-16zm120 48h-88v-48h88c13.230469 0 24 10.769531 24 24s-10.769531 24-24 24zm-236.289062 22.65625 10.9375 11.671875c-14.921876 13.976563-34.328126 21.671875-54.648438 21.671875-44.113281 0-80-35.886719-80-80 0-20.328125 7.695312-39.734375 21.671875-54.648438l11.671875 10.9375c-11.175781 11.933594-17.34375 27.464844-17.34375 43.710938 0 35.289062 28.710938 64 64 64 16.238281 0 31.769531-6.167969 43.710938-17.34375zm36.289062-46.65625c0 16.070312-4.753906 31.566406-13.726562 44.824219l-13.25-8.96875c7.175781-10.609375 10.976562-23 10.976562-35.855469 0-35.289062-28.710938-64-64-64-12.855469 0-25.246094 3.800781-35.847656 10.976562l-8.96875-13.25c13.25-8.972656 28.746094-13.726562 44.816406-13.726562 44.113281 0 80 35.886719 80 80zm192-8h16v16h-16zm0 0" fill="url(#a)"/></svg>