<svg height="45px" viewBox="-8 0 496 496" width="45px" xmlns="http://www.w3.org/2000/svg" xmlns:xlink="http://www.w3.org/1999/xlink"><linearGradient id="a" gradientUnits="userSpaceOnUse" x1="240" x2="240" y1="496" y2="0"><stop offset="0" stop-color="#9f2fff"/><stop offset="1" stop-color="#0bb1d3"/></linearGradient><path d="m232 448h16v16h-16zm149.425781-61.886719-11.3125 11.3125 11.3125 11.308594 11.308594-11.308594zm-282.851562 22.621094 11.3125-11.308594-11.3125-11.3125-11.308594 11.3125zm209.953125-408.734375h75.472656v48h-.902344l6.664063 4.664062c6.40625 4.496094 10.238281 11.839844 10.238281 19.664063v23.671875h40c13.230469 0 24 10.769531 24 24s-10.769531 24-24 24h-40v10.808594c0 4.304687-.6875 8.558594-2.046875 12.648437l-12.730469 38.144531c-.808594 2.453126-1.222656 5.007813-1.222656 7.589844v39.242188c0 39.597656-16.351562 78.367187-44.863281 106.351562-27.144531 26.640625-62.304688 41.214844-99.25 41.214844-.878907 0-1.757813-.007812-2.640625-.023438-77.878906-1.464843-141.246094-66.046874-141.246094-143.976562v-256zm59.289062 256h-31.816406c0 52.9375-43.0625 96-96 96-50.238281 0-91.503906-38.800781-95.59375-88h-16.40625v-96h40v16h-24v64h64v-32h16v48h-63.59375c4.035156 40.367188 38.1875 72 79.59375 72 44.113281 0 80-35.886719 80-80v-36.777344c0-5.429687-1.863281-10.75-5.265625-14.992187l-17.964844-22.46875c-5.648437-7.066407-8.769531-15.9375-8.769531-24.984375v-12.777344h-75.3125l-16-16h-68.6875v-96h40v16h-24v64h52.6875l11.3125-11.3125v-20.6875h16v16h64v-32c0-8.824219 7.175781-16 16-16 3.105469 0 6.046875.585938 8.894531 1.414062l-18.398437-16.101562c-4.128906-3.617188-6.496094-8.824219-6.496094-14.304688 0-1.03125.144531-2.023437.304688-3.007812h-176.304688v240c0 69.273438 56.320312 126.679688 125.542969 127.976562.785156.015626 1.5625.023438 2.328125.023438 32.746094 0 63.921875-12.953125 88.050781-36.632812 24.605469-24.152344 38.949219-57.277344 39.894531-91.367188zm-15.816406-172.367188-18.648438-16.320312c1.6875 3.894531 2.648438 8.175781 2.648438 12.6875v16h16zm-64 28.367188h-68.6875l-8 8 8 8h68.6875zm48 128h32v-16h-32zm48-96h-48v8h-16v-72c0-8.824219-7.175781-16-16-16v92.777344c0 5.429687 1.863281 10.75 5.265625 14.992187l17.964844 22.46875c3.265625 4.082031 5.5625 8.792969 7.027343 13.769531h34.15625c.328126-2.527343.824219-5.023437 1.632813-7.457031l12.730469-38.152343c.808594-2.453126 1.222656-5.007813 1.222656-7.589844zm56-32h-104v16h104c4.414062 0 8-3.585938 8-8s-3.585938-8-8-8zm-56-39.671875c0-2.609375-1.28125-5.054687-3.425781-6.550781l-70.316407-49.226563c-.515624-.367187-1.105468-.550781-1.730468-.550781h-1.519532c-1.65625 0-3.007812 1.351562-3.007812 3.007812 0 .863282.375 1.6875 1.03125 2.265626l62.96875 55.09375v19.632812h16zm-16-56.328125h-30.625l30.625 21.433594zm-213.65625 61.65625 21.65625 21.65625 61.65625-61.65625-11.3125-11.3125-50.34375 50.34375-10.34375-10.34375zm0 136 21.65625 21.65625 61.65625-61.65625-11.3125-11.3125-50.34375 50.34375-10.34375-10.34375zm149.65625 2.34375h-64v16h64zm0 32h-64v16h64zm-80 48h64v-16h-64zm-32 0h16v-16h-16zm208-40c0 37.832031-13.527344 74.585938-38.105469 103.503906l12.183594 10.359375c25.296875-29.757812 39.953125-67.078125 41.738281-105.855469h48.183594v33.753907l-30.128906 7.527343-1.238282 4.488282c-4.3125 15.488281-10.503906 30.421875-18.417968 44.40625l-2.285156 4.0625 15.992187 26.632812-59.058594 59.058594-26.632812-15.992188-4.0625 2.285157c-13.984375 7.90625-28.921875 14.105469-44.40625 18.417969l-4.488281 1.238281-7.519532 30.113281h-83.507812l-7.527344-30.128906-4.488281-1.238282c-15.488281-4.3125-30.421875-10.503906-44.40625-18.417968l-4.0625-2.285156-26.632813 15.992187-59.050781-59.058594 15.992187-26.632812-2.285156-4.0625c-7.90625-13.984375-14.105468-28.921875-18.417968-44.40625l-1.238282-4.480469-30.128906-7.527344v-33.753906h48.175781c4.207031 93.34375 81.457031 168 175.824219 168 46 0 89.550781-17.71875 122.632812-49.886719l-11.160156-11.472656c-30.066406 29.246094-69.65625 45.359375-111.472656 45.359375-88.222656 0-160-71.777344-160-160v-8h-80v62.246094l33.265625 8.3125c4.117187 13.625 9.589844 26.832031 16.320313 39.378906l-17.648438 29.414062 76.710938 76.710938 29.414062-17.648438c12.539062 6.730469 25.753906 12.203126 39.378906 16.320313l8.3125 33.265625h108.492188l8.3125-33.265625c13.625-4.117187 26.832031-9.589844 39.378906-16.320313l29.414062 17.648438 76.710938-76.710938-17.648438-29.414062c6.730469-12.539062 12.203126-25.753906 16.320313-39.378906l33.265625-8.3125v-62.246094h-80zm0 0" fill="url(#a)"/></svg>